<?xml version="1.0" encoding="iso-8859-1"?>
<!-- Generator: Adobe Illustrator 21.0.0, SVG Export Plug-In . SVG Version: 6.00 Build 0)  -->
<svg version="1.1" id="Capa_1" xmlns="http://www.w3.org/2000/svg" xmlns:xlink="http://www.w3.org/1999/xlink" x="0px" y="0px"
	 viewBox="0 0 587.697 587.697" style="enable-background:new 0 0 587.697 587.697;" xml:space="preserve">
<g>
	<g>
		<g id="flat_14_">
			<path style="fill:#4398D1;" d="M86.128,0h466.104c16.79,0,30.398,13.608,30.398,30.398v405.308
				c0,16.79-13.608,30.398-30.398,30.398H86.128c-16.79,0-30.398-13.608-30.398-30.398V30.398C55.73,13.608,69.338,0,86.128,0z"/>
			<path style="fill:#3E8CC7;" d="M552.232,0h-20.265L70.382,461.585c4.732,2.938,10.183,4.499,15.746,4.519h466.104
				c16.79,0,30.398-13.608,30.398-30.398V30.398C582.63,13.608,569.022,0,552.232,0z"/>
			<rect x="86.128" y="30.398" style="fill:#2A7FBF;" width="20.265" height="20.265"/>
			<rect x="126.659" y="30.398" style="fill:#2A7FBF;" width="20.265" height="20.265"/>
			<rect x="167.19" y="30.398" style="fill:#2A7FBF;" width="20.265" height="20.265"/>
			<rect x="86.128" y="70.929" style="fill:#2A7FBF;" width="466.104" height="20.265"/>
			<polygon style="fill:#FDA72F;" points="217.853,233.052 96.261,233.052 96.261,131.725 146.924,131.725 167.19,151.99 
				217.853,151.99 			"/>
			<polygon style="fill:#FDA72F;" points="379.976,233.052 258.384,233.052 258.384,131.725 309.047,131.725 329.313,151.99 
				379.976,151.99 			"/>
			<polygon style="fill:#FDA72F;" points="542.099,233.052 420.507,233.052 420.507,131.725 471.171,131.725 491.436,151.99 
				542.099,151.99 			"/>
			<polygon style="fill:#FDA72F;" points="542.099,395.175 420.507,395.175 420.507,293.848 471.171,293.848 491.436,314.114 
				542.099,314.114 			"/>
			<polygon style="fill:#FDA72F;" points="379.976,395.175 258.384,395.175 258.384,293.848 309.047,293.848 329.313,314.114 
				379.976,314.114 			"/>
			<polygon style="fill:#FF9945;" points="127.854,233.052 217.853,233.052 217.853,151.99 185.074,151.99 			"/>
			<polygon style="fill:#FF9945;" points="289.978,233.052 379.976,233.052 379.976,151.99 347.197,151.99 			"/>
			<polygon style="fill:#FF9945;" points="450.905,233.052 540.904,233.052 540.904,151.99 508.124,151.99 			"/>
			<polygon style="fill:#FF9945;" points="452.101,395.175 542.099,395.175 542.099,314.114 509.32,314.114 			"/>
			<polygon style="fill:#FF9945;" points="289.978,395.175 379.976,395.175 379.976,314.114 347.197,314.114 			"/>
			<path style="fill:#E34B87;" d="M309.047,466.104v-60.796h-34.38c-2.827-10.984-7.184-21.502-12.95-31.27l24.318-24.318
				l-42.993-42.993l-24.318,24.318c-9.768-5.766-20.286-10.123-31.27-12.95v-34.38h-60.796v34.38
				c-10.984,2.827-21.502,7.184-31.27,12.95l-24.318-24.318L28.088,349.73l24.318,24.319c-5.766,9.758-10.133,20.286-12.96,31.259
				H5.066v60.796h34.38c2.827,10.984,7.184,21.502,12.95,31.27l-24.318,24.319l42.993,42.993l24.318-24.318
				c9.768,5.766,20.286,10.123,31.27,12.95v34.38h60.796v-34.38c10.984-2.827,21.502-7.184,31.27-12.95l24.318,24.318l42.993-42.993
				l-24.318-24.318c5.766-9.768,10.123-20.286,12.95-31.27H309.047z M157.057,496.502c-33.58,0-60.796-27.216-60.796-60.796
				s27.216-60.796,60.796-60.796s60.796,27.216,60.796,60.796S190.637,496.502,157.057,496.502z"/>
		</g>
	</g>
</g>
<g>
</g>
<g>
</g>
<g>
</g>
<g>
</g>
<g>
</g>
<g>
</g>
<g>
</g>
<g>
</g>
<g>
</g>
<g>
</g>
<g>
</g>
<g>
</g>
<g>
</g>
<g>
</g>
<g>
</g>
</svg>
