<svg height="512pt" viewBox="-2 0 512 512" width="512pt" xmlns="http://www.w3.org/2000/svg"><path d="m204.597656 64.417969c-84.097656 0-152.453125 68.152343-152.453125 152.449219v22.660156c0 24.441406-9.710937 47.886718-26.992187 65.167968l-20.992188 20.992188c-8.886718 8.886719-2.59375 24.089844 9.980469 24.089844h30.1875c4.316406 0 7.816406 3.5 7.816406 7.816406v25.898438c0 38.699218 31.664063 70.359374 70.363281 70.359374 15.085938 0 27.359376 12.226563 27.359376 27.363282v22.476562c0 4.589844 3.71875 8.308594 8.308593 8.308594h129.851563c4.65625 0 8.429687-3.773438 8.429687-8.429688v-57.648437c0-22.601563 7.53125-44.847656 22.488281-61.792969 23.710938-26.871094 38.101563-62.152344 38.101563-100.808594v-66.453124c0-84.195313-68.253906-152.449219-152.449219-152.449219zm0 0" fill="#e4eaf8"/><path d="m170.34375 503.691406v-22.476562c0-15.136719-12.273438-27.363282-27.359375-27.363282-38.699219 0-70.363281-31.660156-70.363281-70.359374v-25.898438c0-4.316406-3.5-7.816406-7.816406-7.816406h-20.476563c4.316406 0 7.816406 3.5 7.816406 7.816406v25.898438c0 38.699218 31.664063 70.359374 70.363281 70.359374 15.085938 0 27.359376 12.226563 27.359376 27.363282v22.476562c0 4.589844 3.71875 8.308594 8.308593 8.308594h20.476563c-4.585938 0-8.308594-3.71875-8.308594-8.308594zm0 0" fill="#ccd2db"/><path d="m24.636719 325.6875 20.988281-20.992188c17.285156-17.28125 26.996094-40.726562 26.996094-65.167968v-22.660156c0-80.847657 62.878906-146.835938 142.214844-152.097657-3.386719-.226562-6.796876-.351562-10.242188-.351562-84.09375 0-152.449219 68.152343-152.449219 152.449219v22.660156c0 24.441406-9.710937 47.886718-26.996093 65.167968l-20.988282 20.992188c-8.886718 8.886719-2.589844 24.089844 9.980469 24.089844h20.476563c-12.574219 0-18.871094-15.203125-9.980469-24.089844zm0 0" fill="#ccd2db"/><path d="m506.304688 86.621094c-31.742188-51.664063-92.679688-86.621094-162.640626-86.621094-69.960937 0-130.894531 34.957031-162.636718 86.621094-3.269532 5.324218-3.46875 11.488281 0 17.136718 31.742187 51.664063 92.675781 86.621094 162.640625 86.621094 69.960937 0 130.894531-34.957031 162.636719-86.621094 3.269531-5.324218 3.46875-11.488281 0-17.136718zm0 0" fill="#feca57"/><path d="m201.632812 103.757812c-3.265624-5.3125-3.476562-11.476562 0-17.136718 30.171876-49.109375 86.730469-83.097656 152.335938-86.34375-3.414062-.167969-6.84375-.277344-10.304688-.277344-69.960937 0-130.894531 34.957031-162.636718 86.621094-3.265625 5.3125-3.476563 11.476562 0 17.136718 31.742187 51.664063 92.675781 86.621094 162.636718 86.621094 3.460938 0 6.890626-.109375 10.304688-.277344-65.605469-3.246093-122.164062-37.234374-152.335938-86.34375zm0 0" fill="#f4b537"/><path d="m305.0625 3.632812c-80.875 34.144532-80.742188 149.023438 0 183.113282 12.453125 2.378906 25.367188 3.632812 38.605469 3.632812 13.234375 0 26.148437-1.253906 38.605469-3.632812 80.875-34.144532 80.742187-149.023438 0-183.113282-12.457032-2.378906-25.371094-3.632812-38.605469-3.632812-13.238281 0-26.152344 1.253906-38.605469 3.632812zm0 0" fill="#8ac2ff"/><path d="m353.648438 190.105469c-48.726563-2.488281-88.714844-42.191407-88.714844-94.914063 0-52.183594 39.46875-92.402344 88.714844-94.914062.105468-.007813.214843-.011719.320312-.015625-3.410156-.1718752-6.84375-.261719-10.300781-.261719-13.238281 0-26.152344 1.253906-38.605469 3.632812-80.875 34.144532-80.742188 149.023438 0 183.109376 12.453125 2.378906 25.367188 3.636718 38.605469 3.636718 3.457031 0 6.890625-.089844 10.300781-.261718-.105469-.003907-.214844-.007813-.320312-.011719zm0 0" fill="#54a0ff"/><path d="m415.167969 95.1875c0 39.492188-32.011719 71.503906-71.5 71.503906-39.492188 0-71.503907-32.011718-71.503907-71.503906 0-39.488281 32.011719-71.5 71.503907-71.5 39.488281 0 71.5 32.011719 71.5 71.5zm0 0" fill="#54a0ff"/><path d="m292.769531 95.1875c0-35.988281 26.59375-65.753906 61.199219-70.75-3.363281-.488281-6.800781-.75-10.300781-.75-39.492188 0-71.503907 32.011719-71.503907 71.5 0 39.492188 32.011719 71.503906 71.503907 71.503906 3.5 0 6.9375-.265625 10.300781-.75-34.605469-4.996094-61.199219-34.761718-61.199219-70.753906zm0 0" fill="#338def"/><path d="m369.386719 95.1875c0 14.207031-11.515625 25.722656-25.71875 25.722656-14.207031 0-25.722657-11.515625-25.722657-25.722656 0-14.203125 11.515626-25.71875 25.722657-25.71875 14.203125 0 25.71875 11.515625 25.71875 25.71875zm0 0" fill="#338def"/><path d="m353.96875 71.621094c-3.15625-1.382813-6.636719-2.152344-10.300781-2.152344-14.207031 0-25.722657 11.515625-25.722657 25.71875 0 14.207031 11.515626 25.722656 25.722657 25.722656 3.664062 0 7.144531-.769531 10.300781-2.152344-20.511719-8.980468-20.527344-38.152343 0-47.136718zm0 0" fill="#1c78d3"/></svg>